
<svg xmlns="http://www.w3.org/2000/svg" xml:space="preserve" width="2.54mm" height="2.54mm" version="1.1" style="shape-rendering:geometricPrecision; text-rendering:geometricPrecision; image-rendering:optimizeQuality; fill-rule:evenodd; clip-rule:evenodd"
viewBox="0 0 254 254"
 xmlns:xlink="http://www.w3.org/1999/xlink">
 <defs>
  <style type="text/css">
   <![CDATA[
    .fil0 {fill:#FCEB1F}
    .fil1 {fill:#2B2A29;fill-rule:nonzero}
   ]]>
  </style>
 </defs>
 <g id="Ebene_x0020_1">
  <metadata id="CorelCorpID_0Corel-Layer"/>
  <rect class="fil0" width="254" height="254"/>
  <path class="fil1" d="M62 88l10 -20c5,-10 7,-15 7,-17 0,-2 -1,-3 -3,-4 -2,-1 -3,-3 -3,-6 0,-4 0,-6 0,-8 0,-1 1,-1 3,-1l27 0c2,0 3,1 3,3l0 8c0,2 -1,3 -3,5 -2,1 -4,3 -4,4l-28 60 30 85c1,3 1,4 2,5 0,1 1,2 3,2 2,1 3,2 3,3 1,1 1,3 1,5 0,4 0,6 -1,8 0,1 -1,2 -3,2l-50 0c-3,0 -4,-1 -4,-3l0 -8c0,-2 1,-4 3,-5 3,-2 4,-3 4,-5 0,-3 0,-5 -1,-8l-11 -30 -15 30c-1,4 -2,7 -2,9 0,1 1,3 4,5 1,0 1,1 2,1 0,1 0,3 0,7 0,3 0,5 0,6 -1,1 -2,1 -3,1l-29 0c-2,0 -3,-1 -3,-3l0 -9c0,-1 1,-3 4,-4 2,-1 3,-3 4,-4 2,-2 3,-4 5,-9l25 -54 -30 -85c-1,-3 -3,-5 -6,-8 -2,-1 -2,-2 -2,-3l0 -7c0,-3 1,-4 4,-4l50 0c2,0 3,1 3,3l0 8c0,3 -2,4 -4,5 -2,1 -3,2 -3,4 0,2 0,4 1,8l10 28zm55 -46l0 -6c0,-3 2,-4 4,-4l57 0c2,0 3,0 4,1 1,0 1,2 1,5 0,4 0,7 -1,8 0,1 -1,1 -3,1 -5,1 -7,4 -7,10l0 142c0,3 2,5 5,7 3,1 4,2 4,3 1,0 1,2 1,4l0 4c0,3 0,4 -1,5 0,0 -1,0 -3,0l-58 0c-2,0 -3,-1 -3,-3 0,-5 0,-9 1,-10 0,-1 1,-2 4,-3 4,-1 6,-3 6,-7l0 -139c0,-4 0,-6 -1,-8 -1,-2 -3,-3 -5,-4 -2,-1 -3,-2 -4,-2 0,-1 -1,-2 -1,-4zm71 0l0 -6c0,-3 1,-4 4,-4l56 0c2,0 4,0 4,1 1,0 1,2 1,5 0,4 0,7 0,8 -1,1 -2,1 -3,1 -5,1 -8,4 -8,10l0 142c0,3 2,5 6,7 2,1 3,2 4,3 0,0 1,2 1,4l0 4c0,3 -1,4 -1,5 -1,0 -2,0 -4,0l-57 0c-2,0 -4,-1 -4,-3 0,-5 1,-9 1,-10 0,-1 2,-2 4,-3 4,-1 7,-3 7,-7l0 -139c0,-4 -1,-6 -2,-8 0,-2 -2,-3 -5,-4 -2,-1 -3,-2 -3,-2 -1,-1 -1,-2 -1,-4z"/>
 </g>
</svg>
